<?xml version="1.0" encoding="UTF-8"?>
<svg id="Layer_2" data-name="Layer 2" xmlns="http://www.w3.org/2000/svg" viewBox="0 0 414.64 298.37">
  <defs>
    <style>
      .cls-1 {
        fill: #231f20;
      }
    </style>
  </defs>
  <g id="Layer_1-2" data-name="Layer 1">
    <path class="cls-1" d="M406.07,11.5c16.72,38.47,8.63,92.03-21.35,142.76-18.72,31.8-44.78,63.15-76.87,87.62-54.35,41.04-117.53,64.2-167.81,54.15-40.72-7.13-65.67-30.71-67.59-71.12-2.23-45.15,30.7-102.6,86.13-134.47,33.43-19.48,72.27-24.58,92.34-7.69,6.68,5.5,10.8,13.29,12.55,22.13,0,0-1.52,10.57-2.42,15.2-1.15,7.13-5.07,16.26-11.14,23.47-10.88,13.58-30.4,25.98-44.48,23.51-7.42-1.54-13.4-8.12-12.97-8.14.31.02.36-.05.08.05-.52.15-1.7,1.01-2.22,1.57-8.41,7.86-11.03,17.67-8.05,24.83,5.46,10.41,18.06,16.27,33.76,13.3,33.53-5.3,67.93-32.88,84.54-63.97,17.58-33.05,18.86-61.85,3.44-83.65-12.91-18.98-36.58-29.57-64.85-30.17-17.41-.14-36.42,3.76-55.56,10.23-11.74,4.03-23.75,8.86-35.41,14.5-34.97,17.06-66.76,46.07-91.75,75.94C29.44,154.84,12.66,191.93,6.72,226.02c-3.59,21.77-3.36,42.48.47,61.48-2.42-7.18-4.29-14.68-5.44-22.54-7.85-47.48,10.65-108.55,55.43-160.72,28.8-33.74,62.94-63,103.45-80.73C189.34,10.25,219.26,1.06,246.33.08c34.9-1.21,64.55,10.75,81.15,32.95,14.8,19.1,19.1,47.13,9.07,77.35-3.18,9.96-7.66,20.16-12.98,30.16-11.87,20.8-29.25,40.89-50.48,56.46-21.3,15.76-46.06,26.32-68.47,29.29-22.41,3.07-40.56-4.88-49.59-19.19-8.7-13.89-4.4-36.76,12.67-55.67,1.52-1.6,3.38-3.59,4.97-5.14,5.47-5.27,11.6-9.48,18.55-12.33,9.97-4.24,20.96-4.07,26.28,1.45.87.9,2.55,2.49,3.5,3.27.88.74,5.67-2.85,7.65-5.52.97-1.35,3.12-3.05,3.71-6.21.65-3.16.68-8.65.68-8.65-4.83-22.6-37.49-23.11-65.01-7.81,0,0-2.61,1.39-2.61,1.39l-2.58,1.55c-1.47.88-3.7,2.19-5.11,3.19-27.76,18.04-48.11,46.94-54.86,73.1-6.93,25.51-2.77,48.94,11.09,64.51,5.84,6.19,12.87,11.28,21.26,14.83,4.88,2.15,10.51,3.65,15.96,5.1,19.6,5.06,42.9,4.55,67.37-2.31,31.63-8.78,64.91-26.42,93.24-48.76,36.16-29.39,64.5-67.14,81.49-104.31,17.08-38.2,21.61-76.39,12.82-107.27h0Z"/>
  </g>
</svg>